<svg xmlns="http://www.w3.org/2000/svg" width="757.444" height="175.423" viewBox="0 0 200.407 46.414" xmlns:v="https://vecta.io/nano"><defs><filter id="A" color-interpolation-filters="sRGB"><feGaussianBlur stdDeviation="1.05 1.05"/></filter></defs><path d="M-81.969 5.045H85.037v38.678H-81.969z" fill-opacity=".706" paint-order="normal" filter="url(#A)" transform="translate(98.669 -1.178)"/><path d="M16.7 3.867h167.006v38.678H16.7z" fill="#2a2b2e" paint-order="normal"/><g stroke="#aa426c" fill="none" stroke-width="4.004"><path d="M162.951 10.88v24.642"/><path d="M169.698 28.855h-6.439-10.355 0 0 0 0l-.026-5.664 9.574-11.004" stroke-linejoin="round"/><path d="M169.698 28.855H30.707h122.198 0 0"/></g><g fill="#fff" stroke="#fff"><path d="M45.163 18.02q2.406 0 4.304 1.118 1.932 1.085 2.982 3.05 1.085 1.966 1.085 4.508 0 2.542-1.085 4.508-1.051 1.966-2.982 3.084-1.898 1.085-4.304 1.085-2.305 0-4.169-.983-1.83-.983-2.779-2.644l-.034 3.321h-1.762V11.343h1.932v10.1q.983-1.593 2.779-2.508 1.796-.915 4.033-.915zm-.203 15.556q1.932 0 3.423-.847 1.525-.881 2.372-2.44.847-1.559.847-3.592 0-2.033-.847-3.592-.847-1.559-2.372-2.406-1.491-.881-3.423-.881-1.932 0-3.423.881-1.491.847-2.338 2.406-.847 1.559-.847 3.592 0 2.033.847 3.592.847 1.559 2.338 2.44 1.491.847 3.423.847zm11.407-22.233h1.932v23.724h-1.932zm5.342 6.982h1.932v16.742h-1.932zm18.905 0v.881L69.735 33.237h10.879v1.83H66.753v-.915l10.811-13.997H67.295v-1.83zm16.394 0v.881L86.129 33.237h10.879v1.83H83.147v-.915l10.811-13.997H83.689v-1.83zm18.785 0v16.742h-1.796v-3.321q-.983 1.661-2.847 2.644-1.83.983-4.101.983-2.44 0-4.338-1.085-1.898-1.118-2.982-3.084-1.051-2-1.051-4.508 0-2.508 1.051-4.474 1.085-2 2.982-3.084 1.898-1.118 4.338-1.118 2.305 0 4.135.983 1.83.983 2.813 2.677v-3.355zm-8.574 15.251q1.932 0 3.423-.847 1.525-.881 2.372-2.44.847-1.559.847-3.592 0-2.033-.847-3.592-.847-1.559-2.372-2.406-1.491-.881-3.423-.881-1.932 0-3.423.881-1.491.847-2.338 2.406-.847 1.559-.847 3.592 0 2.033.847 3.592.847 1.559 2.338 2.44 1.491.847 3.423.847zm18.733-15.455q1.017 0 1.966.271.949.271 1.661.746l-.847 1.661q-1.322-.813-2.847-.813-1.525 0-2.779.881-1.22.847-1.932 2.338-.678 1.491-.678 3.355v8.507h-1.932V18.325h1.762l.034 3.491q.881-1.762 2.338-2.711 1.457-.983 3.254-.983zm21.152-6.778v23.724h-1.796v-3.321q-.949 1.695-2.813 2.677-1.83.949-4.169.949-2.406 0-4.304-1.085-1.898-1.118-2.982-3.084-1.051-1.966-1.051-4.508 0-2.542 1.051-4.508 1.085-1.966 2.982-3.05 1.898-1.118 4.304-1.118 2.237 0 4.033.915 1.796.915 2.813 2.542V11.343zm-8.574 22.233q1.932 0 3.423-.847 1.525-.881 2.372-2.44.847-1.559.847-3.592 0-2.033-.847-3.592-.847-1.559-2.372-2.406-1.491-.881-3.423-.881-1.932 0-3.423.881-1.491.847-2.338 2.406-.847 1.559-.847 3.592 0 2.033.847 3.592.847 1.559 2.338 2.44 1.491.847 3.423.847z" stroke-width=".961"/><path d="M61.635 11.262h2.078v2.289h-2.078z" stroke-linejoin="round" stroke-dashoffset="15.11811066" paint-order="normal" stroke-width=".81"/></g></svg>