<svg xmlns="http://www.w3.org/2000/svg" width="226.772" height="226.772" viewBox="0 0 60 60" xmlns:v="https://vecta.io/nano"><defs><filter id="A" color-interpolation-filters="sRGB"><feGaussianBlur stdDeviation="1.05 1.05"/></filter></defs><path d="M-81.713 70.911h50v50h-50z" fill-opacity=".706" paint-order="normal" filter="url(#A)" transform="translate(86.713 -65.911)"/><path d="M5 5h50v50H5z" fill="#2a2b2e" paint-order="normal"/><g stroke="#aa426c" fill="none" stroke-width="4.004"><path d="M43.122 17.702v24.642"/><path d="M49.869 35.677H43.43 33.075h0 0 0 0l-.026-5.664 9.574-11.004" stroke-linejoin="round"/></g><path d="M19.573 24.841q2.406 0 4.304 1.118 1.932 1.085 2.982 3.05 1.085 1.966 1.085 4.508 0 2.542-1.085 4.508-1.051 1.966-2.982 3.084-1.898 1.085-4.304 1.085-2.305 0-4.169-.983-1.83-.983-2.779-2.644l-.034 3.321h-1.762V18.165h1.932v10.1q.983-1.593 2.779-2.508 1.796-.915 4.033-.915zm-.203 15.556q1.932 0 3.423-.847 1.525-.881 2.372-2.44.847-1.559.847-3.592 0-2.033-.847-3.592-.847-1.559-2.372-2.406-1.491-.881-3.423-.881-1.932 0-3.423.881-1.491.847-2.338 2.406-.847 1.559-.847 3.592 0 2.033.847 3.592.847 1.559 2.338 2.44 1.491.847 3.423.847z" fill="#fff" stroke="#fff" stroke-width=".961"/></svg>